<?xml version="1.0" encoding="UTF-8"?>
<svg id="Calque_2" data-name="Calque 2" xmlns="http://www.w3.org/2000/svg" viewBox="0 0 1497 1497">
  <defs>
    <style>
      .cls-1 {
        fill: #00e054;
      }

      .cls-1, .cls-2, .cls-3, .cls-4, .cls-5 {
        stroke-width: 0px;
      }

      .cls-2 {
        fill: #40bbf4;
      }

      .cls-3 {
        fill: #fff;
      }

      .cls-4 {
        fill: #ff7e05;
      }

      .cls-5 {
        fill: #456;
      }
    </style>
  </defs>
  <g id="Calque_1-2" data-name="Calque 1">
    <circle class="cls-5" cx="748.5" cy="748.5" r="748.5"/>
    <g>
      <path class="cls-4" d="M539.11,777.18c-7.33,11.57-15.34,22.77-23.82,33.68-51.32,66.05-113.92,119.89-182.19,167.55-2.63,1.84-4.42,1.73-6.96-.06-67.96-47.53-130.42-101.07-181.58-166.83-24.93-32.02-45.84-66.36-57.69-105.56-11.37-37.59-12.14-75.01,3.87-111.56,18.95-43.24,51.33-70.38,98.73-76.06,41.96-5.04,77.75,9.52,106.81,40.12,14.36,15.13,24.43,33.01,31.5,52.6.38,1.06.86,2.1,1.84,4.46,1.08-2.66,1.7-4.11,2.26-5.57,11.45-30.03,29.15-55.22,56.62-72.74,49.96-31.86,110.78-24.24,150.32,13.47-11.94,11.79-21.64,26.48-29.2,43.73-16.01,36.55-15.24,73.97-3.87,111.56,7.73,25.57,19.31,49.07,33.35,71.21Z"/>
      <path class="cls-3" d="M571.4,709.42c-7.74,24.23-18.89,46.61-32.29,67.75-14.04-22.14-25.62-45.64-33.35-71.21-11.37-37.59-12.14-75.01,3.87-111.56,7.56-17.25,17.26-31.94,29.2-43.73,10.82,10.33,20.05,22.91,27.03,37.55,18.91,39.67,18.65,80.17,5.55,121.19Z"/>
      <path class="cls-1" d="M958,777.18c-7.33,11.57-15.34,22.77-23.82,33.68-51.32,66.05-113.92,119.89-182.19,167.55-2.63,1.84-4.42,1.73-6.96-.06-67.96-47.53-130.42-101.07-181.58-166.83-8.66-11.14-16.85-22.54-24.33-34.34,13.4-21.14,24.55-43.52,32.29-67.75,13.1-41.02,13.37-81.52-5.55-121.19-6.97-14.64-16.21-27.22-27.03-37.55,17.98-17.75,41.04-28.92,69.53-32.34,41.96-5.04,77.75,9.52,106.81,40.12,14.36,15.13,24.43,33.01,31.5,52.6.38,1.06.86,2.1,1.84,4.46,1.08-2.66,1.7-4.11,2.26-5.57,11.45-30.03,29.15-55.22,56.62-72.74,49.96-31.86,110.78-24.24,150.32,13.47-11.94,11.79-21.64,26.48-29.2,43.73-16.01,36.55-15.24,73.97-3.87,111.56,7.73,25.57,19.31,49.07,33.35,71.21Z"/>
      <path class="cls-3" d="M990.29,709.42c-7.74,24.23-18.89,46.61-32.29,67.75-14.04-22.14-25.62-45.64-33.35-71.21-11.37-37.59-12.14-75.01,3.87-111.56,7.56-17.25,17.26-31.94,29.2-43.73,10.82,10.33,20.05,22.91,27.03,37.55,18.91,39.67,18.65,80.17,5.55,121.19Z"/>
      <path class="cls-2" d="M1409.19,709.42c-11.97,37.49-32.14,70.58-56.11,101.44-51.32,66.05-113.92,119.89-182.19,167.55-2.63,1.84-4.42,1.73-6.96-.06-67.96-47.53-130.42-101.07-181.58-166.83-8.66-11.14-16.85-22.54-24.33-34.34,13.4-21.14,24.55-43.52,32.29-67.75,13.1-41.02,13.37-81.52-5.55-121.19-6.97-14.64-16.21-27.22-27.03-37.55,17.98-17.75,41.04-28.92,69.53-32.34,41.96-5.04,77.75,9.52,106.81,40.12,14.36,15.13,24.43,33.01,31.5,52.6.38,1.06.86,2.1,1.84,4.46,1.08-2.66,1.7-4.11,2.26-5.57,11.45-30.03,29.15-55.22,56.62-72.74,63.63-40.58,144.89-17.11,177.35,51.02,18.91,39.67,18.65,80.17,5.55,121.19Z"/>
    </g>
  </g>
</svg>