<?xml version="1.0" encoding="UTF-8"?>
<svg id="Calque_2" data-name="Calque 2" xmlns="http://www.w3.org/2000/svg" viewBox="0 0 1174 405.19">
  <defs>
    <style>
      .cls-1 {
        fill: #00e054;
      }

      .cls-1, .cls-2, .cls-3, .cls-4 {
        stroke-width: 0px;
      }

      .cls-2 {
        fill: #40bbf4;
      }

      .cls-3 {
        fill: #fff;
      }

      .cls-4 {
        fill: #ff7e05;
      }
    </style>
  </defs>
  <g id="Calque_1-2" data-name="Calque 1">
    <path class="cls-4" d="M403.55,227.72c-6.42,10.14-13.44,19.95-20.87,29.51-44.96,57.87-99.81,105.04-159.62,146.79-2.3,1.61-3.87,1.52-6.1-.05-59.54-41.64-114.26-88.55-159.09-146.16-21.84-28.05-40.16-58.14-50.54-92.48-9.96-32.93-10.64-65.72,3.39-97.74C27.32,29.71,55.69,5.93,97.22.95c36.76-4.42,68.12,8.34,93.58,35.15,12.58,13.26,21.4,28.92,27.6,46.08.33.93.75,1.84,1.61,3.91.95-2.33,1.49-3.6,1.98-4.88,10.03-26.31,25.54-48.38,49.61-63.73,43.77-27.91,97.06-21.24,131.7,11.8-10.46,10.33-18.96,23.2-25.58,38.31-14.03,32.02-13.35,64.81-3.39,97.74,6.77,22.4,16.92,42.99,29.22,62.39Z"/>
    <path class="cls-3" d="M431.84,168.36c-6.78,21.23-16.55,40.84-28.29,59.36-12.3-19.4-22.45-39.99-29.22-62.39-9.96-32.93-10.64-65.72,3.39-97.74,6.62-15.11,15.12-27.98,25.58-38.31,9.48,9.05,17.57,20.07,23.68,32.9,16.57,34.76,16.34,70.24,4.86,106.18Z"/>
    <path class="cls-1" d="M770.55,227.72c-6.42,10.14-13.44,19.95-20.87,29.51-44.96,57.87-99.81,105.04-159.62,146.79-2.3,1.61-3.87,1.52-6.1-.05-59.54-41.64-114.26-88.55-159.09-146.16-7.59-9.76-14.76-19.75-21.32-30.09,11.74-18.52,21.51-38.13,28.29-59.36,11.48-35.94,11.71-71.42-4.86-106.18-6.11-12.83-14.2-23.85-23.68-32.9,15.75-15.55,35.96-25.34,60.92-28.33,36.76-4.42,68.12,8.34,93.58,35.15,12.58,13.26,21.4,28.92,27.6,46.08.33.93.75,1.84,1.61,3.91.95-2.33,1.49-3.6,1.98-4.88,10.03-26.31,25.54-48.38,49.61-63.73,43.77-27.91,97.06-21.24,131.7,11.8-10.46,10.33-18.96,23.2-25.58,38.31-14.03,32.02-13.35,64.81-3.39,97.74,6.77,22.4,16.92,42.99,29.22,62.39Z"/>
    <path class="cls-3" d="M798.84,168.36c-6.78,21.23-16.55,40.84-28.29,59.36-12.3-19.4-22.45-39.99-29.22-62.39-9.96-32.93-10.64-65.72,3.39-97.74,6.62-15.11,15.12-27.98,25.58-38.31,9.48,9.05,17.57,20.07,23.68,32.9,16.57,34.76,16.34,70.24,4.86,106.18Z"/>
    <path class="cls-2" d="M1165.84,168.36c-10.49,32.85-28.16,61.84-49.16,88.87-44.96,57.87-99.81,105.04-159.62,146.79-2.3,1.61-3.87,1.52-6.1-.05-59.54-41.64-114.26-88.55-159.09-146.16-7.59-9.76-14.76-19.75-21.32-30.09,11.74-18.52,21.51-38.13,28.29-59.36,11.48-35.94,11.71-71.42-4.86-106.18-6.11-12.83-14.2-23.85-23.68-32.9,15.75-15.55,35.96-25.34,60.92-28.33,36.76-4.42,68.12,8.34,93.58,35.15,12.58,13.26,21.4,28.92,27.6,46.08.33.93.75,1.84,1.61,3.91.95-2.33,1.49-3.6,1.98-4.88,10.03-26.31,25.54-48.38,49.61-63.73,55.75-35.55,126.94-14.99,155.38,44.7,16.57,34.76,16.34,70.24,4.86,106.18Z"/>
  </g>
</svg>